<svg width="857" height="1136" viewBox="0 0 857 1136" class="keymap" xmlns="http://www.w3.org/2000/svg" xmlns:xlink="http://www.w3.org/1999/xlink">
<defs>/* start glyphs */
<svg id="mdi:star-four-points">
<svg xmlns="http://www.w3.org/2000/svg" id="mdi-star-four-points" viewBox="0 0 24 24"><path d="M12,1L9,9L1,12L9,15L12,23L15,15L23,12L15,9L12,1Z" /></svg>
</svg>
</defs>/* end glyphs */
<style>/* inherit to force styles through use tags */
svg path {
    fill: inherit;
}

/* font and background color specifications */
svg.keymap {
    font-family: SFMono-Regular,Consolas,Liberation Mono,Menlo,monospace;
    font-size: 14px;
    font-kerning: normal;
    text-rendering: optimizeLegibility;
    fill: #24292e;
}

/* default key styling */
rect.key {
    fill: #f6f8fa;
}

rect.key, rect.combo {
    stroke: #c9cccf;
    stroke-width: 1;
}

/* default key side styling, only used is draw_key_sides is set */
rect.side {
    filter: brightness(90%);
}

/* color accent for combo boxes */
rect.combo, rect.combo-separate {
    fill: #cdf;
}

/* color accent for held keys */
rect.held, rect.combo.held {
    fill: #fdd;
}

/* color accent for ghost (optional) keys */
rect.ghost, rect.combo.ghost {
    stroke-dasharray: 4, 4;
    stroke-width: 2;
}

text {
    text-anchor: middle;
    dominant-baseline: middle;
}

/* styling for layer labels */
text.label {
    font-weight: bold;
    text-anchor: start;
    stroke: white;
    stroke-width: 4;
    paint-order: stroke;
}

/* styling for optional footer */
text.footer {
    text-anchor: end;
    dominant-baseline: auto;
    stroke: white;
    stroke-width: 4;
    paint-order: stroke;
}

/* styling for combo tap, and key non-tap label text */
text.combo, text.hold, text.shifted, text.left, text.right {
    font-size: 11px;
}

text.hold {
    text-anchor: middle;
    dominant-baseline: auto;
}

text.shifted {
    text-anchor: middle;
    dominant-baseline: hanging;
}

text.left {
    text-anchor: start;
}

text.right {
    text-anchor: end;
}

text.layer-activator {
    text-decoration: underline;
}

/* styling for hold/shifted label text in combo box */
text.combo.hold, text.combo.shifted, text.combo.left, text.combo.right {
    font-size: 8px;
}

/* lighter symbol for transparent keys */
text.trans {
    fill: #7b7e81;
}

/* styling for combo dendrons */
path.combo {
    stroke-width: 1;
    stroke: gray;
    fill: none;
}

/* Start Tabler Icons Cleanup */
/* cannot use height/width with glyphs */
.icon-tabler > path {
    fill: inherit;
    stroke: inherit;
    stroke-width: 2;
}
/* hide tabler's default box */
.icon-tabler > path[stroke="none"][fill="none"] {
    visibility: hidden;
}
/* End Tabler Icons Cleanup */
</style>
<g transform="translate(30, 0)" class="layer-L1">
<text x="0" y="28" class="label" id="L1">L1:</text>
<g transform="translate(0, 56)">
<g transform="translate(50, 37)" class="key keypos-0">
<rect rx="6" ry="6" x="-26" y="-26" width="52" height="52" class="key"/>
<text x="0" y="0" class="key tap">ESC</text>
</g>
<g transform="translate(107, 37)" class="key keypos-1">
<rect rx="6" ry="6" x="-26" y="-26" width="52" height="52" class="key"/>
<text x="0" y="0" class="key tap">Q</text>
</g>
<g transform="translate(163, 37)" class="key keypos-2">
<rect rx="6" ry="6" x="-26" y="-26" width="52" height="52" class="key"/>
<text x="0" y="0" class="key tap">W</text>
</g>
<g transform="translate(228, 37) rotate(22.62)" class="key keypos-3">
<rect rx="6" ry="6" x="-26" y="-26" width="52" height="52" class="key"/>
<text x="0" y="0" class="key tap">E</text>
</g>
<g transform="translate(279, 58) rotate(22.62)" class="key keypos-4">
<rect rx="6" ry="6" x="-26" y="-26" width="52" height="52" class="key"/>
<text x="0" y="0" class="key tap">R</text>
</g>
<g transform="translate(331, 80) rotate(22.62)" class="key keypos-5">
<rect rx="6" ry="6" x="-26" y="-26" width="52" height="52" class="key"/>
<text x="0" y="0" class="key tap">T</text>
</g>
<g transform="translate(39, 93)" class="key keypos-6">
<rect rx="6" ry="6" x="-26" y="-26" width="52" height="52" class="key"/>
<text x="0" y="0" class="key tap">Y</text>
</g>
<g transform="translate(95, 93)" class="key keypos-7">
<rect rx="6" ry="6" x="-26" y="-26" width="52" height="52" class="key"/>
<text x="0" y="0" class="key tap">U</text>
</g>
<g transform="translate(152, 93)" class="key keypos-8">
<rect rx="6" ry="6" x="-26" y="-26" width="52" height="52" class="key"/>
<text x="0" y="0" class="key tap">I</text>
</g>
<g transform="translate(216, 93) rotate(22.62)" class="key keypos-9">
<rect rx="6" ry="6" x="-26" y="-26" width="52" height="52" class="key"/>
<text x="0" y="0" class="key tap">O</text>
</g>
<g transform="translate(268, 114) rotate(22.62)" class="key keypos-10">
<rect rx="6" ry="6" x="-26" y="-26" width="52" height="52" class="key"/>
<text x="0" y="0" class="key tap">P</text>
</g>
<g transform="translate(320, 136) rotate(22.62)" class="key keypos-11">
<rect rx="6" ry="6" x="-26" y="-26" width="52" height="52" class="key"/>
<text x="0" y="0" class="key tap">CANCEL</text>
</g>
<g transform="translate(28, 149)" class="key keypos-12">
<rect rx="6" ry="6" x="-26" y="-26" width="52" height="52" class="key"/>
<text x="0" y="0" class="key tap"><tspan style="font-size: 78%">BACKSPACE</tspan></text>
<text x="0" y="-24" class="key shifted">DELETE</text>
</g>
<g transform="translate(84, 149)" class="key keypos-13">
<rect rx="6" ry="6" x="-26" y="-26" width="52" height="52" class="key"/>
<text x="0" y="0" class="key tap">A</text>
</g>
<g transform="translate(140, 149)" class="key keypos-14">
<rect rx="6" ry="6" x="-26" y="-26" width="52" height="52" class="key"/>
<text x="0" y="0" class="key tap">S</text>
<text x="0" y="24" class="key hold">LCTRL</text>
</g>
<g transform="translate(205, 149) rotate(22.62)" class="key keypos-15">
<rect rx="6" ry="6" x="-26" y="-26" width="52" height="52" class="key"/>
<text x="0" y="0" class="key tap">D</text>
<text x="0" y="24" class="key hold">LALT</text>
</g>
<g transform="translate(257, 171) rotate(22.62)" class="key keypos-16">
<rect rx="6" ry="6" x="-26" y="-26" width="52" height="52" class="key"/>
<text x="0" y="0" class="key tap">F</text>
<text x="0" y="24" class="key hold">LCMD</text>
</g>
<g transform="translate(309, 192) rotate(22.62)" class="key keypos-17">
<rect rx="6" ry="6" x="-26" y="-26" width="52" height="52" class="key"/>
<text x="0" y="0" class="key tap">G</text>
<text x="0" y="24" class="key hold"><tspan style="font-size: 64%">Sft+Ctl+LA…</tspan></text>
</g>
<g transform="translate(360, 214) rotate(23.0)" class="key keypos-18">
<rect rx="6" ry="6" x="-26" y="-26" width="52" height="52" class="key"/>
<text x="0" y="0" class="key tap">H</text>
<text x="0" y="24" class="key hold"><tspan style="font-size: 64%">Sft+Ctl+LA…</tspan></text>
</g>
<g transform="translate(46, 205)" class="key keypos-19">
<rect rx="6" ry="6" x="-26" y="-26" width="52" height="52" class="key"/>
<text x="0" y="0" class="key tap">J</text>
<text x="0" y="24" class="key hold">LCMD</text>
</g>
<g transform="translate(140, 205)" class="key keypos-20">
<rect rx="6" ry="6" x="-26" y="-26" width="52" height="52" class="key"/>
<text x="0" y="0" class="key tap">K</text>
<text x="0" y="24" class="key hold">LALT</text>
</g>
<g transform="translate(225, 218) rotate(22.62)" class="key keypos-21">
<rect rx="6" ry="6" x="-26" y="-26" width="52" height="52" class="key"/>
<text x="0" y="0" class="key tap">L</text>
<text x="0" y="24" class="key hold">LCTRL</text>
</g>
<g transform="translate(277, 240) rotate(22.62)" class="key keypos-22">
<rect rx="6" ry="6" x="-26" y="-26" width="52" height="52" class="key"/>
<text x="0" y="0" class="key tap">&#x27;</text>
</g>
<g transform="translate(335, 264) rotate(22.62)" class="key keypos-23">
<rect rx="6" ry="6" x="-26" y="-26" width="52" height="52" class="key"/>
<text x="0" y="0" class="key tap">ENTER</text>
</g>
<g transform="translate(399, 276)" class="key keypos-24">
<rect rx="6" ry="6" x="-26" y="-26" width="52" height="52" class="key"/>
<text x="0" y="0" class="key tap">
<tspan x="0" dy="-0.6em">&amp;csl</tspan><tspan x="0" dy="1.2em">2</tspan>
</text>
</g>
<g transform="translate(747, 37)" class="key keypos-25">
<rect rx="6" ry="6" x="-26" y="-26" width="52" height="52" class="key"/>
<text x="0" y="0" class="key tap">Z</text>
</g>
<g transform="translate(691, 37)" class="key keypos-26">
<rect rx="6" ry="6" x="-26" y="-26" width="52" height="52" class="key"/>
<text x="0" y="0" class="key tap">X</text>
</g>
<g transform="translate(634, 37)" class="key keypos-27">
<rect rx="6" ry="6" x="-26" y="-26" width="52" height="52" class="key"/>
<text x="0" y="0" class="key tap">C</text>
</g>
<g transform="translate(570, 37) rotate(-22.62)" class="key keypos-28">
<rect rx="6" ry="6" x="-26" y="-26" width="52" height="52" class="key"/>
<text x="0" y="0" class="key tap">V</text>
</g>
<g transform="translate(518, 58) rotate(-22.62)" class="key keypos-29">
<rect rx="6" ry="6" x="-26" y="-26" width="52" height="52" class="key"/>
<text x="0" y="0" class="key tap">B</text>
</g>
<g transform="translate(466, 80) rotate(-22.62)" class="key keypos-30">
<rect rx="6" ry="6" x="-26" y="-26" width="52" height="52" class="key"/>
<text x="0" y="0" class="key tap">
<tspan x="0" dy="-0.6em">&amp;mkp</tspan><tspan x="0" dy="1.2em">LCLK</tspan>
</text>
</g>
<g transform="translate(758, 93)" class="key keypos-31">
<rect rx="6" ry="6" x="-26" y="-26" width="52" height="52" class="key"/>
<text x="0" y="0" class="key tap">
<tspan x="0" dy="-0.6em">&amp;mkp</tspan><tspan x="0" dy="1.2em">RCLK</tspan>
</text>
</g>
<g transform="translate(702, 93)" class="key keypos-32">
<rect rx="6" ry="6" x="-26" y="-26" width="52" height="52" class="key"/>
<text x="0" y="0" class="key tap">N</text>
</g>
<g transform="translate(646, 93)" class="key keypos-33">
<rect rx="6" ry="6" x="-26" y="-26" width="52" height="52" class="key"/>
<text x="0" y="0" class="key tap">M</text>
</g>
<g transform="translate(581, 93) rotate(-22.62)" class="key keypos-34">
<rect rx="6" ry="6" x="-26" y="-26" width="52" height="52" class="key"/>
<text x="0" y="0" class="key tap">,</text>
</g>
<g transform="translate(529, 114) rotate(-22.62)" class="key keypos-35">
<rect rx="6" ry="6" x="-26" y="-26" width="52" height="52" class="key"/>
<text x="0" y="0" class="key tap">.</text>
</g>
<g transform="translate(477, 136) rotate(-22.62)" class="key keypos-36">
<rect rx="6" ry="6" x="-26" y="-26" width="52" height="52" class="key"/>
<text x="0" y="0" class="key tap">;</text>
</g>
<g transform="translate(769, 149)" class="key keypos-37">
<rect rx="6" ry="6" x="-26" y="-26" width="52" height="52" class="key"/>
<text x="0" y="0" class="key tap">
<tspan x="0" dy="-0.6em">&amp;csl</tspan><tspan x="0" dy="1.2em">2</tspan>
</text>
</g>
<g transform="translate(713, 149)" class="key keypos-38">
<rect rx="6" ry="6" x="-26" y="-26" width="52" height="52" class="key"/>
<text x="0" y="0" class="key tap">ESC</text>
</g>
<g transform="translate(657, 149)" class="key keypos-39">
<rect rx="6" ry="6" x="-26" y="-26" width="52" height="52" class="key"/>
<text x="0" y="0" class="key tap">ESC</text>
</g>
<g transform="translate(592, 149) rotate(-22.62)" class="key keypos-40">
<rect rx="6" ry="6" x="-26" y="-26" width="52" height="52" class="key"/>
<text x="0" y="0" class="key tap">TAB</text>
</g>
<g transform="translate(540, 171) rotate(-22.62)" class="key keypos-41">
<rect rx="6" ry="6" x="-26" y="-26" width="52" height="52" class="key"/>
<text x="0" y="0" class="key tap">SPACE</text>
<text x="0" y="24" class="key hold">LSHFT</text>
</g>
<g transform="translate(488, 192) rotate(-22.62)" class="key keypos-42">
<rect rx="6" ry="6" x="-26" y="-26" width="52" height="52" class="key"/>
<text x="0" y="0" class="key tap"><tspan style="font-size: 70%">&amp;num_dance</tspan></text>
<a href="#L2">
<text x="0" y="24" class="key hold layer-activator">L2</text>
</a></g>
<g transform="translate(437, 214) rotate(-23.0)" class="key keypos-43">
<rect rx="6" ry="6" x="-26" y="-26" width="52" height="52" class="key"/>
<text x="0" y="0" class="key tap">
<tspan x="0" dy="-0.6em">&amp;mkp</tspan><tspan x="0" dy="1.2em">MB4</tspan>
</text>
</g>
<g transform="translate(751, 205)" class="key keypos-44">
<rect rx="6" ry="6" x="-26" y="-26" width="52" height="52" class="key"/>
<text x="0" y="0" class="key tap"><tspan style="font-size: 70%">&amp;num_dance</tspan></text>
<a href="#L2">
<text x="0" y="24" class="key hold layer-activator">L2</text>
</a></g>
<g transform="translate(657, 205)" class="key keypos-45">
<rect rx="6" ry="6" x="-26" y="-26" width="52" height="52" class="key"/>
<text x="0" y="0" class="key tap">RSHFT</text>
<text x="0" y="24" class="key hold">sticky</text>
<text x="0" y="-24" class="key shifted"><tspan style="font-size: 70%">&amp;caps_word</tspan></text>
</g>
<g transform="translate(572, 218) rotate(-22.62)" class="key keypos-46">
<rect rx="6" ry="6" x="-26" y="-26" width="52" height="52" class="key"/>
<text x="0" y="0" class="key tap">`</text>
</g>
<g transform="translate(520, 240) rotate(-22.62)" class="key keypos-47">
<rect rx="6" ry="6" x="-26" y="-26" width="52" height="52" class="key"/>
<text x="0" y="0" class="key tap">ESC</text>
</g>
<g transform="translate(462, 264) rotate(-22.62)" class="key keypos-48">
<rect rx="6" ry="6" x="-26" y="-26" width="52" height="52" class="key"/>
<text x="0" y="0" class="key tap">ESC</text>
</g>
<g class="combo combopos-0">
<rect rx="6" ry="6" x="87" y="52" width="28" height="26" class="combo"/>
<text x="101" y="65" class="combo tap">!</text>
</g>
<g class="combo combopos-1">
<rect rx="6" ry="6" x="143" y="52" width="28" height="26" class="combo"/>
<text x="157" y="65" class="combo tap">@</text>
</g>
<g class="combo combopos-2">
<rect rx="6" ry="6" x="208" y="52" width="28" height="26" class="combo"/>
<text x="222" y="65" class="combo tap">#</text>
</g>
<g class="combo combopos-3">
<rect rx="6" ry="6" x="260" y="73" width="28" height="26" class="combo"/>
<text x="274" y="86" class="combo tap">$</text>
</g>
<g class="combo combopos-4">
<rect rx="6" ry="6" x="312" y="95" width="28" height="26" class="combo"/>
<text x="326" y="108" class="combo tap">%</text>
</g>
<g class="combo combopos-5">
<rect rx="6" ry="6" x="76" y="108" width="28" height="26" class="combo"/>
<text x="90" y="121" class="combo tap">^</text>
</g>
<g class="combo combopos-6">
<rect rx="6" ry="6" x="132" y="108" width="28" height="26" class="combo"/>
<text x="146" y="121" class="combo tap">&amp;</text>
</g>
<g class="combo combopos-7">
<rect rx="6" ry="6" x="197" y="108" width="28" height="26" class="combo"/>
<text x="211" y="121" class="combo tap">*</text>
</g>
<g class="combo combopos-8">
<rect rx="6" ry="6" x="249" y="129" width="28" height="26" class="combo"/>
<text x="263" y="142" class="combo tap">(</text>
</g>
<g class="combo combopos-9">
<rect rx="6" ry="6" x="300" y="151" width="28" height="26" class="combo"/>
<text x="314" y="164" class="combo tap">)</text>
</g>
<g class="combo combopos-10">
<rect rx="6" ry="6" x="509" y="73" width="28" height="26" class="combo"/>
<text x="523" y="86" class="combo tap">-</text>
</g>
<g class="combo combopos-11">
<rect rx="6" ry="6" x="561" y="52" width="28" height="26" class="combo"/>
<text x="575" y="65" class="combo tap">=</text>
</g>
<g class="combo combopos-12">
<rect rx="6" ry="6" x="626" y="52" width="28" height="26" class="combo"/>
<text x="640" y="65" class="combo tap">/</text>
</g>
<g class="combo combopos-13">
<rect rx="6" ry="6" x="458" y="95" width="28" height="26" class="combo"/>
<text x="472" y="108" class="combo tap">
<tspan x="472" dy="-0.6em">PG</tspan><tspan x="472" dy="1.2em">UP</tspan>
</text>
</g>
<g class="combo combopos-14">
<rect rx="6" ry="6" x="469" y="151" width="28" height="26" class="combo"/>
<text x="483" y="164" class="combo tap">
<tspan x="483" dy="-0.6em">PG</tspan><tspan x="483" dy="1.2em">DN</tspan>
</text>
</g>
<g class="combo combopos-15">
<rect rx="6" ry="6" x="521" y="130" width="28" height="26" class="combo"/>
<text x="535" y="143" class="combo tap">[</text>
</g>
<g class="combo combopos-16">
<rect rx="6" ry="6" x="572" y="108" width="28" height="26" class="combo"/>
<text x="586" y="121" class="combo tap">]</text>
</g>
<g class="combo combopos-17">
<rect rx="6" ry="6" x="637" y="108" width="28" height="26" class="combo"/>
<text x="651" y="121" class="combo tap">\</text>
</g>
<g class="combo combopos-18">
<rect rx="6" ry="6" x="478" y="56" width="28" height="26" class="combo"/>
<text x="492" y="69" class="combo tap">PP</text>
</g>
<g class="combo combopos-19">
<rect rx="6" ry="6" x="280" y="112" width="28" height="26" class="combo"/>
<use href="#mdi:star-four-points" xlink:href="#mdi:star-four-points" x="287" y="118" height="14" width="14.0" class="combo tap glyph mdi:star-four-points"/>
</g>
<g class="combo combopos-20">
<rect rx="6" ry="6" x="489" y="112" width="28" height="26" class="combo"/>
<use href="#mdi:star-four-points" xlink:href="#mdi:star-four-points" x="496" y="118" height="14" width="14.0" class="combo tap glyph mdi:star-four-points"/>
</g>
</g>
</g>
<g transform="translate(30, 360)" class="layer-L2">
<text x="0" y="28" class="label" id="L2">L2:</text>
<g transform="translate(0, 56)">
<g transform="translate(50, 37)" class="key trans keypos-0">
<rect rx="6" ry="6" x="-26" y="-26" width="52" height="52" class="key trans"/>
<text x="0" y="0" class="key trans tap">▽</text>
</g>
<g transform="translate(107, 37)" class="key keypos-1">
<rect rx="6" ry="6" x="-26" y="-26" width="52" height="52" class="key"/>
<text x="0" y="0" class="key tap">1</text>
</g>
<g transform="translate(163, 37)" class="key keypos-2">
<rect rx="6" ry="6" x="-26" y="-26" width="52" height="52" class="key"/>
<text x="0" y="0" class="key tap">2</text>
</g>
<g transform="translate(228, 37) rotate(22.62)" class="key keypos-3">
<rect rx="6" ry="6" x="-26" y="-26" width="52" height="52" class="key"/>
<text x="0" y="0" class="key tap">3</text>
</g>
<g transform="translate(279, 58) rotate(22.62)" class="key keypos-4">
<rect rx="6" ry="6" x="-26" y="-26" width="52" height="52" class="key"/>
<text x="0" y="0" class="key tap">4</text>
</g>
<g transform="translate(331, 80) rotate(22.62)" class="key keypos-5">
<rect rx="6" ry="6" x="-26" y="-26" width="52" height="52" class="key"/>
<text x="0" y="0" class="key tap">5</text>
</g>
<g transform="translate(39, 93)" class="key keypos-6">
<rect rx="6" ry="6" x="-26" y="-26" width="52" height="52" class="key"/>
<text x="0" y="0" class="key tap">PREV</text>
</g>
<g transform="translate(95, 93)" class="key keypos-7">
<rect rx="6" ry="6" x="-26" y="-26" width="52" height="52" class="key"/>
<text x="0" y="0" class="key tap">
<tspan x="0" dy="-0.6em">VOL</tspan><tspan x="0" dy="1.2em">DN</tspan>
</text>
</g>
<g transform="translate(152, 93)" class="key keypos-8">
<rect rx="6" ry="6" x="-26" y="-26" width="52" height="52" class="key"/>
<text x="0" y="0" class="key tap">
<tspan x="0" dy="-0.6em">VOL</tspan><tspan x="0" dy="1.2em">UP</tspan>
</text>
</g>
<g transform="translate(216, 93) rotate(22.62)" class="key keypos-9">
<rect rx="6" ry="6" x="-26" y="-26" width="52" height="52" class="key"/>
<text x="0" y="0" class="key tap">NEXT</text>
</g>
<g transform="translate(268, 114) rotate(22.62)" class="key keypos-10">
<rect rx="6" ry="6" x="-26" y="-26" width="52" height="52" class="key"/>
<text x="0" y="0" class="key tap">MUTE</text>
</g>
<g transform="translate(320, 136) rotate(22.62)" class="key trans keypos-11">
<rect rx="6" ry="6" x="-26" y="-26" width="52" height="52" class="key trans"/>
<text x="0" y="0" class="key trans tap">▽</text>
</g>
<g transform="translate(28, 149)" class="key trans keypos-12">
<rect rx="6" ry="6" x="-26" y="-26" width="52" height="52" class="key trans"/>
<text x="0" y="0" class="key trans tap">▽</text>
</g>
<g transform="translate(84, 149)" class="key keypos-13">
<rect rx="6" ry="6" x="-26" y="-26" width="52" height="52" class="key"/>
<text x="0" y="0" class="key tap">6</text>
</g>
<g transform="translate(140, 149)" class="key keypos-14">
<rect rx="6" ry="6" x="-26" y="-26" width="52" height="52" class="key"/>
<text x="0" y="0" class="key tap">7</text>
<text x="0" y="24" class="key hold">LCTRL</text>
</g>
<g transform="translate(205, 149) rotate(22.62)" class="key keypos-15">
<rect rx="6" ry="6" x="-26" y="-26" width="52" height="52" class="key"/>
<text x="0" y="0" class="key tap">8</text>
<text x="0" y="24" class="key hold">LALT</text>
</g>
<g transform="translate(257, 171) rotate(22.62)" class="key keypos-16">
<rect rx="6" ry="6" x="-26" y="-26" width="52" height="52" class="key"/>
<text x="0" y="0" class="key tap">9</text>
<text x="0" y="24" class="key hold">LCMD</text>
</g>
<g transform="translate(309, 192) rotate(22.62)" class="key keypos-17">
<rect rx="6" ry="6" x="-26" y="-26" width="52" height="52" class="key"/>
<text x="0" y="0" class="key tap">0</text>
<text x="0" y="24" class="key hold"><tspan style="font-size: 64%">Sft+Ctl+LA…</tspan></text>
</g>
<g transform="translate(360, 214) rotate(23.0)" class="key keypos-18">
<rect rx="6" ry="6" x="-26" y="-26" width="52" height="52" class="key"/>
<text x="0" y="0" class="key tap">LEFT</text>
<text x="0" y="24" class="key hold"><tspan style="font-size: 64%">Sft+Ctl+LA…</tspan></text>
</g>
<g transform="translate(46, 205)" class="key keypos-19">
<rect rx="6" ry="6" x="-26" y="-26" width="52" height="52" class="key"/>
<text x="0" y="0" class="key tap">DOWN</text>
<text x="0" y="24" class="key hold">LCMD</text>
</g>
<g transform="translate(140, 205)" class="key keypos-20">
<rect rx="6" ry="6" x="-26" y="-26" width="52" height="52" class="key"/>
<text x="0" y="0" class="key tap">UP</text>
<text x="0" y="24" class="key hold">LALT</text>
</g>
<g transform="translate(225, 218) rotate(22.62)" class="key keypos-21">
<rect rx="6" ry="6" x="-26" y="-26" width="52" height="52" class="key"/>
<text x="0" y="0" class="key tap">RIGHT</text>
<text x="0" y="24" class="key hold">LCTRL</text>
</g>
<g transform="translate(277, 240) rotate(22.62)" class="key trans keypos-22">
<rect rx="6" ry="6" x="-26" y="-26" width="52" height="52" class="key trans"/>
<text x="0" y="0" class="key trans tap">▽</text>
</g>
<g transform="translate(335, 264) rotate(22.62)" class="key trans keypos-23">
<rect rx="6" ry="6" x="-26" y="-26" width="52" height="52" class="key trans"/>
<text x="0" y="0" class="key trans tap">▽</text>
</g>
<g transform="translate(399, 276)" class="key trans keypos-24">
<rect rx="6" ry="6" x="-26" y="-26" width="52" height="52" class="key trans"/>
<text x="0" y="0" class="key trans tap">▽</text>
</g>
<g transform="translate(747, 37)" class="key trans keypos-25">
<rect rx="6" ry="6" x="-26" y="-26" width="52" height="52" class="key trans"/>
<text x="0" y="0" class="key trans tap">▽</text>
</g>
<g transform="translate(691, 37)" class="key trans keypos-26">
<rect rx="6" ry="6" x="-26" y="-26" width="52" height="52" class="key trans"/>
<text x="0" y="0" class="key trans tap">▽</text>
</g>
<g transform="translate(634, 37)" class="key trans keypos-27">
<rect rx="6" ry="6" x="-26" y="-26" width="52" height="52" class="key trans"/>
<text x="0" y="0" class="key trans tap">▽</text>
</g>
<g transform="translate(570, 37) rotate(-22.62)" class="key trans keypos-28">
<rect rx="6" ry="6" x="-26" y="-26" width="52" height="52" class="key trans"/>
<text x="0" y="0" class="key trans tap">▽</text>
</g>
<g transform="translate(518, 58) rotate(-22.62)" class="key trans keypos-29">
<rect rx="6" ry="6" x="-26" y="-26" width="52" height="52" class="key trans"/>
<text x="0" y="0" class="key trans tap">▽</text>
</g>
<g transform="translate(466, 80) rotate(-22.62)" class="key keypos-30">
<rect rx="6" ry="6" x="-26" y="-26" width="52" height="52" class="key"/>
<text x="0" y="0" class="key tap">
<tspan x="0" dy="-0.6em">&amp;mkp</tspan><tspan x="0" dy="1.2em">LCLK</tspan>
</text>
</g>
<g transform="translate(758, 93)" class="key keypos-31">
<rect rx="6" ry="6" x="-26" y="-26" width="52" height="52" class="key"/>
<text x="0" y="0" class="key tap">
<tspan x="0" dy="-0.6em">&amp;mkp</tspan><tspan x="0" dy="1.2em">RCLK</tspan>
</text>
</g>
<g transform="translate(702, 93)" class="key trans keypos-32">
<rect rx="6" ry="6" x="-26" y="-26" width="52" height="52" class="key trans"/>
<text x="0" y="0" class="key trans tap">▽</text>
</g>
<g transform="translate(646, 93)" class="key trans keypos-33">
<rect rx="6" ry="6" x="-26" y="-26" width="52" height="52" class="key trans"/>
<text x="0" y="0" class="key trans tap">▽</text>
</g>
<g transform="translate(581, 93) rotate(-22.62)" class="key trans keypos-34">
<rect rx="6" ry="6" x="-26" y="-26" width="52" height="52" class="key trans"/>
<text x="0" y="0" class="key trans tap">▽</text>
</g>
<g transform="translate(529, 114) rotate(-22.62)" class="key trans keypos-35">
<rect rx="6" ry="6" x="-26" y="-26" width="52" height="52" class="key trans"/>
<text x="0" y="0" class="key trans tap">▽</text>
</g>
<g transform="translate(477, 136) rotate(-22.62)" class="key trans keypos-36">
<rect rx="6" ry="6" x="-26" y="-26" width="52" height="52" class="key trans"/>
<text x="0" y="0" class="key trans tap">▽</text>
</g>
<g transform="translate(769, 149)" class="key trans keypos-37">
<rect rx="6" ry="6" x="-26" y="-26" width="52" height="52" class="key trans"/>
<text x="0" y="0" class="key trans tap">▽</text>
</g>
<g transform="translate(713, 149)" class="key trans keypos-38">
<rect rx="6" ry="6" x="-26" y="-26" width="52" height="52" class="key trans"/>
<text x="0" y="0" class="key trans tap">▽</text>
</g>
<g transform="translate(657, 149)" class="key trans keypos-39">
<rect rx="6" ry="6" x="-26" y="-26" width="52" height="52" class="key trans"/>
<text x="0" y="0" class="key trans tap">▽</text>
</g>
<g transform="translate(592, 149) rotate(-22.62)" class="key trans keypos-40">
<rect rx="6" ry="6" x="-26" y="-26" width="52" height="52" class="key trans"/>
<text x="0" y="0" class="key trans tap">▽</text>
</g>
<g transform="translate(540, 171) rotate(-22.62)" class="key trans keypos-41">
<rect rx="6" ry="6" x="-26" y="-26" width="52" height="52" class="key trans"/>
<text x="0" y="0" class="key trans tap">▽</text>
</g>
<g transform="translate(488, 192) rotate(-22.62)" class="key held keypos-42">
<rect rx="6" ry="6" x="-26" y="-26" width="52" height="52" class="key held"/>
<text x="0" y="0" class="key held tap">
<tspan x="0" dy="-0.6em">&amp;cmo</tspan><tspan x="0" dy="1.2em">1</tspan>
</text>
</g>
<g transform="translate(437, 214) rotate(-23.0)" class="key keypos-43">
<rect rx="6" ry="6" x="-26" y="-26" width="52" height="52" class="key"/>
<text x="0" y="0" class="key tap">
<tspan x="0" dy="-0.6em">&amp;mkp</tspan><tspan x="0" dy="1.2em">MB4</tspan>
</text>
</g>
<g transform="translate(751, 205)" class="key keypos-44">
<rect rx="6" ry="6" x="-26" y="-26" width="52" height="52" class="key"/>
<text x="0" y="0" class="key tap">
<tspan x="0" dy="-0.6em">&amp;cmo</tspan><tspan x="0" dy="1.2em">1</tspan>
</text>
</g>
<g transform="translate(657, 205)" class="key trans keypos-45">
<rect rx="6" ry="6" x="-26" y="-26" width="52" height="52" class="key trans"/>
<text x="0" y="0" class="key trans tap">▽</text>
</g>
<g transform="translate(572, 218) rotate(-22.62)" class="key trans keypos-46">
<rect rx="6" ry="6" x="-26" y="-26" width="52" height="52" class="key trans"/>
<text x="0" y="0" class="key trans tap">▽</text>
</g>
<g transform="translate(520, 240) rotate(-22.62)" class="key trans keypos-47">
<rect rx="6" ry="6" x="-26" y="-26" width="52" height="52" class="key trans"/>
<text x="0" y="0" class="key trans tap">▽</text>
</g>
<g transform="translate(462, 264) rotate(-22.62)" class="key trans keypos-48">
<rect rx="6" ry="6" x="-26" y="-26" width="52" height="52" class="key trans"/>
<text x="0" y="0" class="key trans tap">▽</text>
</g>
<g class="combo combopos-0">
<rect rx="6" ry="6" x="87" y="52" width="28" height="26" class="combo"/>
<text x="101" y="65" class="combo tap">!</text>
</g>
<g class="combo combopos-1">
<rect rx="6" ry="6" x="143" y="52" width="28" height="26" class="combo"/>
<text x="157" y="65" class="combo tap">@</text>
</g>
<g class="combo combopos-2">
<rect rx="6" ry="6" x="208" y="52" width="28" height="26" class="combo"/>
<text x="222" y="65" class="combo tap">#</text>
</g>
<g class="combo combopos-3">
<rect rx="6" ry="6" x="260" y="73" width="28" height="26" class="combo"/>
<text x="274" y="86" class="combo tap">$</text>
</g>
<g class="combo combopos-4">
<rect rx="6" ry="6" x="312" y="95" width="28" height="26" class="combo"/>
<text x="326" y="108" class="combo tap">%</text>
</g>
<g class="combo combopos-5">
<rect rx="6" ry="6" x="76" y="108" width="28" height="26" class="combo"/>
<text x="90" y="121" class="combo tap">^</text>
</g>
<g class="combo combopos-6">
<rect rx="6" ry="6" x="132" y="108" width="28" height="26" class="combo"/>
<text x="146" y="121" class="combo tap">&amp;</text>
</g>
<g class="combo combopos-7">
<rect rx="6" ry="6" x="197" y="108" width="28" height="26" class="combo"/>
<text x="211" y="121" class="combo tap">*</text>
</g>
<g class="combo combopos-8">
<rect rx="6" ry="6" x="249" y="129" width="28" height="26" class="combo"/>
<text x="263" y="142" class="combo tap">(</text>
</g>
<g class="combo combopos-9">
<rect rx="6" ry="6" x="300" y="151" width="28" height="26" class="combo"/>
<text x="314" y="164" class="combo tap">)</text>
</g>
<g class="combo combopos-10">
<rect rx="6" ry="6" x="509" y="73" width="28" height="26" class="combo"/>
<text x="523" y="86" class="combo tap">-</text>
</g>
<g class="combo combopos-11">
<rect rx="6" ry="6" x="561" y="52" width="28" height="26" class="combo"/>
<text x="575" y="65" class="combo tap">=</text>
</g>
<g class="combo combopos-12">
<rect rx="6" ry="6" x="626" y="52" width="28" height="26" class="combo"/>
<text x="640" y="65" class="combo tap">/</text>
</g>
<g class="combo combopos-13">
<rect rx="6" ry="6" x="458" y="95" width="28" height="26" class="combo"/>
<text x="472" y="108" class="combo tap">
<tspan x="472" dy="-0.6em">PG</tspan><tspan x="472" dy="1.2em">UP</tspan>
</text>
</g>
<g class="combo combopos-14">
<rect rx="6" ry="6" x="469" y="151" width="28" height="26" class="combo"/>
<text x="483" y="164" class="combo tap">
<tspan x="483" dy="-0.6em">PG</tspan><tspan x="483" dy="1.2em">DN</tspan>
</text>
</g>
<g class="combo combopos-15">
<rect rx="6" ry="6" x="521" y="130" width="28" height="26" class="combo"/>
<text x="535" y="143" class="combo tap">[</text>
</g>
<g class="combo combopos-16">
<rect rx="6" ry="6" x="572" y="108" width="28" height="26" class="combo"/>
<text x="586" y="121" class="combo tap">]</text>
</g>
<g class="combo combopos-17">
<rect rx="6" ry="6" x="637" y="108" width="28" height="26" class="combo"/>
<text x="651" y="121" class="combo tap">\</text>
</g>
<g class="combo combopos-18">
<rect rx="6" ry="6" x="478" y="56" width="28" height="26" class="combo"/>
<text x="492" y="69" class="combo tap">PP</text>
</g>
<g class="combo combopos-19">
<rect rx="6" ry="6" x="280" y="112" width="28" height="26" class="combo"/>
<use href="#mdi:star-four-points" xlink:href="#mdi:star-four-points" x="287" y="118" height="14" width="14.0" class="combo tap glyph mdi:star-four-points"/>
</g>
<g class="combo combopos-20">
<rect rx="6" ry="6" x="489" y="112" width="28" height="26" class="combo"/>
<use href="#mdi:star-four-points" xlink:href="#mdi:star-four-points" x="496" y="118" height="14" width="14.0" class="combo tap glyph mdi:star-four-points"/>
</g>
</g>
</g>
<g transform="translate(30, 720)" class="layer-Fn">
<text x="0" y="28" class="label" id="Fn">Fn:</text>
<g transform="translate(0, 56)">
<g transform="translate(50, 37)" class="key keypos-0">
<rect rx="6" ry="6" x="-26" y="-26" width="52" height="52" class="key"/>
<text x="0" y="0" class="key tap">
<tspan x="0" dy="-0.6em">OUT</tspan><tspan x="0" dy="1.2em">TOG</tspan>
</text>
</g>
<g transform="translate(107, 37)" class="key keypos-1">
<rect rx="6" ry="6" x="-26" y="-26" width="52" height="52" class="key"/>
<text x="0" y="0" class="key tap">F1</text>
</g>
<g transform="translate(163, 37)" class="key keypos-2">
<rect rx="6" ry="6" x="-26" y="-26" width="52" height="52" class="key"/>
<text x="0" y="0" class="key tap">F2</text>
</g>
<g transform="translate(228, 37) rotate(22.62)" class="key keypos-3">
<rect rx="6" ry="6" x="-26" y="-26" width="52" height="52" class="key"/>
<text x="0" y="0" class="key tap">F3</text>
</g>
<g transform="translate(279, 58) rotate(22.62)" class="key keypos-4">
<rect rx="6" ry="6" x="-26" y="-26" width="52" height="52" class="key"/>
<text x="0" y="0" class="key tap">F4</text>
</g>
<g transform="translate(331, 80) rotate(22.62)" class="key keypos-5">
<rect rx="6" ry="6" x="-26" y="-26" width="52" height="52" class="key"/>
<text x="0" y="0" class="key tap">F5</text>
</g>
<g transform="translate(39, 93)" class="key trans keypos-6">
<rect rx="6" ry="6" x="-26" y="-26" width="52" height="52" class="key trans"/>
<text x="0" y="0" class="key trans tap">▽</text>
</g>
<g transform="translate(95, 93)" class="key trans keypos-7">
<rect rx="6" ry="6" x="-26" y="-26" width="52" height="52" class="key trans"/>
<text x="0" y="0" class="key trans tap">▽</text>
</g>
<g transform="translate(152, 93)" class="key trans keypos-8">
<rect rx="6" ry="6" x="-26" y="-26" width="52" height="52" class="key trans"/>
<text x="0" y="0" class="key trans tap">▽</text>
</g>
<g transform="translate(216, 93) rotate(22.62)" class="key trans keypos-9">
<rect rx="6" ry="6" x="-26" y="-26" width="52" height="52" class="key trans"/>
<text x="0" y="0" class="key trans tap">▽</text>
</g>
<g transform="translate(268, 114) rotate(22.62)" class="key trans keypos-10">
<rect rx="6" ry="6" x="-26" y="-26" width="52" height="52" class="key trans"/>
<text x="0" y="0" class="key trans tap">▽</text>
</g>
<g transform="translate(320, 136) rotate(22.62)" class="key keypos-11">
<rect rx="6" ry="6" x="-26" y="-26" width="52" height="52" class="key"/>
<text x="0" y="0" class="key tap">POWER</text>
</g>
<g transform="translate(28, 149)" class="key keypos-12">
<rect rx="6" ry="6" x="-26" y="-26" width="52" height="52" class="key"/>
<text x="0" y="0" class="key tap"><tspan style="font-size: 70%">&amp;sys_reset</tspan></text>
<text x="0" y="24" class="key hold"><tspan style="font-size: 64%">&amp;bootloader</tspan></text>
</g>
<g transform="translate(84, 149)" class="key keypos-13">
<rect rx="6" ry="6" x="-26" y="-26" width="52" height="52" class="key"/>
<text x="0" y="0" class="key tap">F6</text>
</g>
<g transform="translate(140, 149)" class="key keypos-14">
<rect rx="6" ry="6" x="-26" y="-26" width="52" height="52" class="key"/>
<text x="0" y="0" class="key tap">F7</text>
<text x="0" y="24" class="key hold">LCTRL</text>
</g>
<g transform="translate(205, 149) rotate(22.62)" class="key keypos-15">
<rect rx="6" ry="6" x="-26" y="-26" width="52" height="52" class="key"/>
<text x="0" y="0" class="key tap">F8</text>
<text x="0" y="24" class="key hold">LALT</text>
</g>
<g transform="translate(257, 171) rotate(22.62)" class="key keypos-16">
<rect rx="6" ry="6" x="-26" y="-26" width="52" height="52" class="key"/>
<text x="0" y="0" class="key tap">F9</text>
<text x="0" y="24" class="key hold">LCMD</text>
</g>
<g transform="translate(309, 192) rotate(22.62)" class="key keypos-17">
<rect rx="6" ry="6" x="-26" y="-26" width="52" height="52" class="key"/>
<text x="0" y="0" class="key tap">F10</text>
<text x="0" y="24" class="key hold"><tspan style="font-size: 64%">Sft+Ctl+LA…</tspan></text>
</g>
<g transform="translate(360, 214) rotate(23.0)" class="key trans keypos-18">
<rect rx="6" ry="6" x="-26" y="-26" width="52" height="52" class="key trans"/>
<text x="0" y="0" class="key trans tap">▽</text>
</g>
<g transform="translate(46, 205)" class="key trans keypos-19">
<rect rx="6" ry="6" x="-26" y="-26" width="52" height="52" class="key trans"/>
<text x="0" y="0" class="key trans tap">▽</text>
</g>
<g transform="translate(140, 205)" class="key trans keypos-20">
<rect rx="6" ry="6" x="-26" y="-26" width="52" height="52" class="key trans"/>
<text x="0" y="0" class="key trans tap">▽</text>
</g>
<g transform="translate(225, 218) rotate(22.62)" class="key trans keypos-21">
<rect rx="6" ry="6" x="-26" y="-26" width="52" height="52" class="key trans"/>
<text x="0" y="0" class="key trans tap">▽</text>
</g>
<g transform="translate(277, 240) rotate(22.62)" class="key trans keypos-22">
<rect rx="6" ry="6" x="-26" y="-26" width="52" height="52" class="key trans"/>
<text x="0" y="0" class="key trans tap">▽</text>
</g>
<g transform="translate(335, 264) rotate(22.62)" class="key keypos-23">
<rect rx="6" ry="6" x="-26" y="-26" width="52" height="52" class="key"/>
<text x="0" y="0" class="key tap"><tspan style="font-size: 70%">&amp;sys_reset</tspan></text>
<text x="0" y="24" class="key hold"><tspan style="font-size: 64%">&amp;bootloader</tspan></text>
</g>
<g transform="translate(399, 276)" class="key keypos-24">
<rect rx="6" ry="6" x="-26" y="-26" width="52" height="52" class="key"/>
<text x="0" y="0" class="key tap">
<tspan x="0" dy="-0.6em">&amp;cmo</tspan><tspan x="0" dy="1.2em">2</tspan>
</text>
</g>
<g transform="translate(747, 37)" class="key keypos-25">
<rect rx="6" ry="6" x="-26" y="-26" width="52" height="52" class="key"/>
<text x="0" y="0" class="key tap">F11</text>
</g>
<g transform="translate(691, 37)" class="key keypos-26">
<rect rx="6" ry="6" x="-26" y="-26" width="52" height="52" class="key"/>
<text x="0" y="0" class="key tap">F12</text>
</g>
<g transform="translate(634, 37)" class="key keypos-27">
<rect rx="6" ry="6" x="-26" y="-26" width="52" height="52" class="key"/>
<text x="0" y="0" class="key tap">F13</text>
</g>
<g transform="translate(570, 37) rotate(-22.62)" class="key keypos-28">
<rect rx="6" ry="6" x="-26" y="-26" width="52" height="52" class="key"/>
<text x="0" y="0" class="key tap">F14</text>
</g>
<g transform="translate(518, 58) rotate(-22.62)" class="key keypos-29">
<rect rx="6" ry="6" x="-26" y="-26" width="52" height="52" class="key"/>
<text x="0" y="0" class="key tap">F15</text>
</g>
<g transform="translate(466, 80) rotate(-22.62)" class="key keypos-30">
<rect rx="6" ry="6" x="-26" y="-26" width="52" height="52" class="key"/>
<text x="0" y="0" class="key tap">
<tspan x="0" dy="-0.6em">&amp;mkp</tspan><tspan x="0" dy="1.2em">LCLK</tspan>
</text>
</g>
<g transform="translate(758, 93)" class="key keypos-31">
<rect rx="6" ry="6" x="-26" y="-26" width="52" height="52" class="key"/>
<text x="0" y="0" class="key tap">
<tspan x="0" dy="-0.6em">&amp;mkp</tspan><tspan x="0" dy="1.2em">RCLK</tspan>
</text>
</g>
<g transform="translate(702, 93)" class="key trans keypos-32">
<rect rx="6" ry="6" x="-26" y="-26" width="52" height="52" class="key trans"/>
<text x="0" y="0" class="key trans tap">▽</text>
</g>
<g transform="translate(646, 93)" class="key trans keypos-33">
<rect rx="6" ry="6" x="-26" y="-26" width="52" height="52" class="key trans"/>
<text x="0" y="0" class="key trans tap">▽</text>
</g>
<g transform="translate(581, 93) rotate(-22.62)" class="key trans keypos-34">
<rect rx="6" ry="6" x="-26" y="-26" width="52" height="52" class="key trans"/>
<text x="0" y="0" class="key trans tap">▽</text>
</g>
<g transform="translate(529, 114) rotate(-22.62)" class="key trans keypos-35">
<rect rx="6" ry="6" x="-26" y="-26" width="52" height="52" class="key trans"/>
<text x="0" y="0" class="key trans tap">▽</text>
</g>
<g transform="translate(477, 136) rotate(-22.62)" class="key trans keypos-36">
<rect rx="6" ry="6" x="-26" y="-26" width="52" height="52" class="key trans"/>
<text x="0" y="0" class="key trans tap">▽</text>
</g>
<g transform="translate(769, 149)" class="key keypos-37">
<rect rx="6" ry="6" x="-26" y="-26" width="52" height="52" class="key"/>
<text x="0" y="0" class="key tap">
<tspan x="0" dy="-0.6em">&amp;cmo</tspan><tspan x="0" dy="1.2em">2</tspan>
</text>
</g>
<g transform="translate(713, 149)" class="key trans keypos-38">
<rect rx="6" ry="6" x="-26" y="-26" width="52" height="52" class="key trans"/>
<text x="0" y="0" class="key trans tap">▽</text>
</g>
<g transform="translate(657, 149)" class="key trans keypos-39">
<rect rx="6" ry="6" x="-26" y="-26" width="52" height="52" class="key trans"/>
<text x="0" y="0" class="key trans tap">▽</text>
</g>
<g transform="translate(592, 149) rotate(-22.62)" class="key keypos-40">
<rect rx="6" ry="6" x="-26" y="-26" width="52" height="52" class="key"/>
<text x="0" y="0" class="key tap">
<tspan x="0" dy="-0.6em">BRI</tspan><tspan x="0" dy="1.2em">DN</tspan>
</text>
</g>
<g transform="translate(540, 171) rotate(-22.62)" class="key keypos-41">
<rect rx="6" ry="6" x="-26" y="-26" width="52" height="52" class="key"/>
<text x="0" y="0" class="key tap">
<tspan x="0" dy="-0.6em">BRI</tspan><tspan x="0" dy="1.2em">UP</tspan>
</text>
</g>
<g transform="translate(488, 192) rotate(-22.62)" class="key keypos-42">
<rect rx="6" ry="6" x="-26" y="-26" width="52" height="52" class="key"/>
<text x="0" y="0" class="key tap">
<tspan x="0" dy="-0.6em">&amp;cmo</tspan><tspan x="0" dy="1.2em">1</tspan>
</text>
</g>
<g transform="translate(437, 214) rotate(-23.0)" class="key keypos-43">
<rect rx="6" ry="6" x="-26" y="-26" width="52" height="52" class="key"/>
<text x="0" y="0" class="key tap">
<tspan x="0" dy="-0.6em">&amp;mkp</tspan><tspan x="0" dy="1.2em">MB4</tspan>
</text>
</g>
<g transform="translate(751, 205)" class="key keypos-44">
<rect rx="6" ry="6" x="-26" y="-26" width="52" height="52" class="key"/>
<text x="0" y="0" class="key tap">
<tspan x="0" dy="-0.6em">&amp;cmo</tspan><tspan x="0" dy="1.2em">1</tspan>
</text>
</g>
<g transform="translate(657, 205)" class="key keypos-45">
<rect rx="6" ry="6" x="-26" y="-26" width="52" height="52" class="key"/>
<text x="0" y="0" class="key tap"><tspan style="font-size: 88%">CAPSLOCK</tspan></text>
</g>
<g transform="translate(572, 218) rotate(-22.62)" class="key trans keypos-46">
<rect rx="6" ry="6" x="-26" y="-26" width="52" height="52" class="key trans"/>
<text x="0" y="0" class="key trans tap">▽</text>
</g>
<g transform="translate(520, 240) rotate(-22.62)" class="key trans keypos-47">
<rect rx="6" ry="6" x="-26" y="-26" width="52" height="52" class="key trans"/>
<text x="0" y="0" class="key trans tap">▽</text>
</g>
<g transform="translate(462, 264) rotate(-22.62)" class="key trans keypos-48">
<rect rx="6" ry="6" x="-26" y="-26" width="52" height="52" class="key trans"/>
<text x="0" y="0" class="key trans tap">▽</text>
</g>
<g class="combo combopos-0">
<rect rx="6" ry="6" x="509" y="73" width="28" height="26" class="combo"/>
<text x="523" y="86" class="combo tap">-</text>
</g>
<g class="combo combopos-1">
<rect rx="6" ry="6" x="561" y="52" width="28" height="26" class="combo"/>
<text x="575" y="65" class="combo tap">=</text>
</g>
<g class="combo combopos-2">
<rect rx="6" ry="6" x="626" y="52" width="28" height="26" class="combo"/>
<text x="640" y="65" class="combo tap">/</text>
</g>
<g class="combo combopos-3">
<rect rx="6" ry="6" x="458" y="95" width="28" height="26" class="combo"/>
<text x="472" y="108" class="combo tap">
<tspan x="472" dy="-0.6em">PG</tspan><tspan x="472" dy="1.2em">UP</tspan>
</text>
</g>
<g class="combo combopos-4">
<rect rx="6" ry="6" x="469" y="151" width="28" height="26" class="combo"/>
<text x="483" y="164" class="combo tap">
<tspan x="483" dy="-0.6em">PG</tspan><tspan x="483" dy="1.2em">DN</tspan>
</text>
</g>
<g class="combo combopos-5">
<rect rx="6" ry="6" x="521" y="130" width="28" height="26" class="combo"/>
<text x="535" y="143" class="combo tap">[</text>
</g>
<g class="combo combopos-6">
<rect rx="6" ry="6" x="572" y="108" width="28" height="26" class="combo"/>
<text x="586" y="121" class="combo tap">]</text>
</g>
<g class="combo combopos-7">
<rect rx="6" ry="6" x="637" y="108" width="28" height="26" class="combo"/>
<text x="651" y="121" class="combo tap">\</text>
</g>
<g class="combo combopos-8">
<path d="M194,42 l-69,-4" class="combo"/>
<path d="M194,42 l67,13" class="combo"/>
<rect rx="6" ry="6" x="180" y="29" width="28" height="26" class="combo"/>
<text x="194" y="42" class="combo tap">
<tspan x="194" dy="-0.6em">BT</tspan><tspan x="194" dy="1.2em">CLR</tspan>
</text>
</g>
<g class="combo combopos-9">
<rect rx="6" ry="6" x="87" y="52" width="28" height="26" class="combo"/>
<text x="101" y="65" class="combo tap">BT</text>
<text x="101" y="76" class="combo hold">0</text>
</g>
<g class="combo combopos-10">
<rect rx="6" ry="6" x="143" y="52" width="28" height="26" class="combo"/>
<text x="157" y="65" class="combo tap">BT</text>
<text x="157" y="76" class="combo hold">1</text>
</g>
<g class="combo combopos-11">
<rect rx="6" ry="6" x="208" y="52" width="28" height="26" class="combo"/>
<text x="222" y="65" class="combo tap">BT</text>
<text x="222" y="76" class="combo hold">2</text>
</g>
<g class="combo combopos-12">
<rect rx="6" ry="6" x="260" y="73" width="28" height="26" class="combo"/>
<text x="274" y="86" class="combo tap">BT</text>
<text x="274" y="97" class="combo hold">3</text>
</g>
<g class="combo combopos-13">
<rect rx="6" ry="6" x="312" y="95" width="28" height="26" class="combo"/>
<text x="326" y="108" class="combo tap">BT</text>
<text x="326" y="119" class="combo hold">4</text>
</g>
<g class="combo combopos-14">
<rect rx="6" ry="6" x="478" y="56" width="28" height="26" class="combo"/>
<text x="492" y="69" class="combo tap">PP</text>
</g>
<g class="combo combopos-15">
<rect rx="6" ry="6" x="280" y="112" width="28" height="26" class="combo"/>
<use href="#mdi:star-four-points" xlink:href="#mdi:star-four-points" x="287" y="118" height="14" width="14.0" class="combo tap glyph mdi:star-four-points"/>
</g>
<g class="combo combopos-16">
<rect rx="6" ry="6" x="489" y="112" width="28" height="26" class="combo"/>
<use href="#mdi:star-four-points" xlink:href="#mdi:star-four-points" x="496" y="118" height="14" width="14.0" class="combo tap glyph mdi:star-four-points"/>
</g>
</g>
</g>
</svg>
